Coordinates
version=1
nRows=32
nColumns=12
inDegrees=yes

Units are S.I. units (second, meters, Newtons, ...)
Angles are in degrees

endheader
time	SC_y	SC_z	SC_x	AC_y	AC_z	AC_x	GH_y	GH_z	GH_yy	EL_x	PS_y
       0.0              -33.73         0.6356           22.2          43.23          4.853          12.77         -129.1          64.14          3.229          51.34          145.8
  0.006273              -33.73         0.6353          22.21          43.23          4.851          12.77         -129.1          64.13          3.211          51.33          145.8
   0.01255              -33.73         0.6349          22.21          43.23          4.848          12.77         -129.0          64.13          3.192          51.32          145.8
   0.01882              -33.73         0.6344          22.21          43.23          4.845          12.77         -129.0          64.13          3.172          51.32          145.8
   0.02509              -33.73          0.634          22.22          43.23          4.842          12.76         -129.0          64.12          3.151          51.31          145.8
   0.03136              -33.73         0.6335          22.22          43.24          4.838          12.76         -129.0          64.12          3.128           51.3          145.8
   0.03764              -33.73          0.633          22.23          43.24          4.835          12.76         -128.9          64.11          3.104          51.29          145.8
   0.04391              -33.73         0.6324          22.23          43.24          4.831          12.75         -128.9          64.11          3.078          51.28          145.9
   0.05018              -33.74         0.6318          22.24          43.24          4.827          12.75         -128.9           64.1           3.05          51.27          145.9
   0.05645              -33.74         0.6312          22.24          43.25          4.822          12.75         -128.9           64.1          3.021          51.26          145.9
   0.06273              -33.74         0.6305          22.25          43.25          4.818          12.74         -128.8          64.09          2.989          51.25          145.9
     0.069              -33.74         0.6297          22.25          43.25          4.813          12.74         -128.8          64.09          2.954          51.24          145.9
   0.07527              -33.74         0.6289          22.26          43.25          4.807          12.73         -128.7          64.08          2.917          51.23          145.9
   0.08154              -33.74         0.6281          22.27          43.26          4.801          12.73         -128.7          64.07          2.877          51.21          145.9
   0.08782              -33.74         0.6271          22.28          43.26          4.795          12.72         -128.6          64.06          2.834           51.2          145.9
   0.09409              -33.74         0.6261          22.28          43.26          4.788          12.72         -128.6          64.05          2.787          51.18          145.9
    0.1004              -33.74          0.625          22.29          43.27           4.78          12.71         -128.5          64.04          2.736          51.16          145.9
    0.1066              -33.74         0.6238           22.3          43.27          4.772          12.71         -128.5          64.03           2.68          51.14          145.9
    0.1129              -33.74         0.6225          22.32          43.28          4.763           12.7         -128.4          64.02          2.619          51.12          145.9
    0.1192              -33.75         0.6211          22.33          43.28          4.753          12.69         -128.3          64.01          2.553           51.1          145.9
    0.1255              -33.75         0.6195          22.34          43.29          4.742          12.68         -128.3           64.0           2.48          51.07          145.9
    0.1317              -33.75         0.6178          22.36          43.29           4.73          12.67         -128.2          63.98            2.4          51.04          145.9
     0.138              -33.75         0.6158          22.37           43.3          4.717          12.66         -128.1          63.96          2.311          51.01          145.9
    0.1443              -33.75         0.6137          22.39          43.31          4.703          12.65         -128.0          63.94          2.212          50.98          145.9
    0.1505              -33.76         0.6114          22.41          43.32          4.687          12.64         -127.8          63.92          2.103          50.94          146.0
    0.1568              -33.76         0.6087          22.43          43.33          4.669          12.62         -127.7           63.9          1.981           50.9          146.0
    0.1631              -33.76         0.6058          22.46          43.34          4.648           12.6         -127.6          63.87          1.844          50.85          146.0
    0.1694              -33.77         0.6025          22.49          43.35          4.625          12.58         -127.4          63.84          1.691           50.8          146.0
    0.1756              -33.77         0.5987          22.52          43.36            4.6          12.56         -127.2          63.81          1.517          50.73          146.0
    0.1819              -33.77         0.5945          22.56          43.38          4.571          12.54         -127.0          63.77           1.32          50.66          146.0
    0.1882              -33.78         0.5896           22.6           43.4          4.537          12.51         -126.7          63.73          1.094          50.59          146.1
    0.1944              -33.78          0.584          22.65          43.42          4.499          12.48         -126.4          63.68          0.836          50.49          146.1
